<?xml version="1.0" standalone="no"?>
<!DOCTYPE svg PUBLIC "-//W3C//DTD SVG 20010904//EN"
 "http://www.w3.org/TR/2001/REC-SVG-20010904/DTD/svg10.dtd">
<svg version="1.0" xmlns="http://www.w3.org/2000/svg"
 width="500.000000pt" height="200.000000pt" viewBox="0 0 500.000000 200.000000"
 preserveAspectRatio="xMidYMid meet">

<g transform="translate(0.000000,200.000000) scale(0.100000,-0.100000)"
fill="#000000" stroke="none">
<path d="M2185 1940 c-24 -25 -27 -34 -19 -48 11 -16 21 -19 86 -21 26 -1 88
-44 88 -62 0 -5 -14 -9 -31 -9 -19 0 -28 -4 -23 -11 3 -6 22 -9 43 -6 30 4 42
-1 71 -27 19 -17 9 -3 -24 31 -32 33 -55 66 -52 72 9 15 -4 62 -16 55 -5 -3
-7 -18 -3 -32 6 -26 6 -26 -13 -8 -11 9 -23 28 -26 42 -5 19 -11 23 -31 20
-14 -3 -29 -7 -35 -11 -20 -13 -9 14 12 29 12 9 18 16 12 16 -6 0 -23 -14 -39
-30z m50 -31 c-4 -5 -13 -9 -21 -9 -9 0 -12 -5 -8 -11 4 -7 -1 -10 -12 -7 -10
2 -20 12 -21 23 -2 11 0 14 3 8 4 -10 10 -10 26 2 22 15 43 11 33 -6z"/>
<path d="M2430 1716 c0 -2 8 -10 18 -17 15 -13 16 -12 3 4 -13 16 -21 21 -21
13z"/>
<path d="M2340 1697 c0 -3 21 -12 47 -21 38 -13 45 -14 33 -2 -15 14 -80 32
-80 23z"/>
<path d="M2497 1676 c-6 -16 -10 -16 -25 -5 -16 13 -16 12 1 -7 25 -30 21 -37
-10 -18 -27 16 -27 16 2 -9 17 -15 24 -26 16 -27 -20 0 3 -26 40 -44 l29 -14
-18 31 c-9 18 -19 50 -22 72 -4 31 -7 36 -13 21z"/>
<path d="M2207 1663 c9 -25 69 -107 90 -124 10 -8 5 1 -10 20 -15 18 -37 51
-47 72 -21 40 -44 63 -33 32z"/>
<path d="M2050 1641 c0 -17 -43 -55 -85 -76 -49 -25 -217 -185 -298 -284 -44
-54 -74 -80 -111 -97 -84 -39 -113 -30 -81 26 19 33 19 43 -1 32 -9 -5 -24 -7
-33 -5 -9 2 -55 -14 -101 -36 -90 -44 -130 -51 -130 -25 0 25 29 60 172 206
127 130 168 181 156 194 -17 16 -102 -71 -256 -259 -38 -47 -70 -77 -81 -77
-11 0 -66 -31 -123 -68 -119 -79 -128 -85 -128 -79 0 3 22 33 50 67 27 34 50
66 50 71 0 21 -65 6 -135 -31 -77 -41 -109 -48 -120 -30 -4 6 0 22 9 35 22 34
21 48 -3 36 -10 -6 -21 -8 -24 -4 -11 10 -55 -7 -86 -33 -31 -26 -41 -54 -19
-54 16 0 101 51 95 57 -3 2 -24 -8 -46 -23 -23 -15 -44 -24 -48 -21 -9 10 15
34 52 52 41 19 64 6 57 -32 -6 -31 19 -39 70 -24 33 10 42 10 49 0 6 -11 17
-9 53 9 26 12 46 18 46 13 0 -5 -33 -42 -72 -82 -89 -90 -299 -239 -337 -239
-25 0 -26 -1 -26 -65 0 -51 3 -65 15 -65 12 0 14 12 12 60 -3 38 0 60 7 60 6
0 8 -7 5 -15 -4 -8 1 -17 10 -21 21 -8 20 -24 -1 -25 -13 0 -14 -2 -4 -6 7 -3
23 4 35 16 11 11 46 41 77 66 31 24 83 73 115 109 62 68 265 208 272 187 6
-17 20 -13 59 16 23 17 34 22 33 12 -7 -44 16 -50 89 -24 36 12 41 12 41 0 0
-23 21 -18 73 15 26 17 49 30 51 30 2 0 1 -11 -2 -25 -8 -44 28 -44 130 -1 15
7 16 3 11 -28 -8 -54 14 -56 107 -10 70 35 79 38 83 22 7 -24 52 -23 117 1 49
19 49 19 39 0 -14 -28 -1 -24 66 21 76 50 88 51 79 5 -6 -33 -5 -35 21 -35 14
0 35 5 46 10 15 8 19 7 19 -5 0 -25 32 -17 88 21 44 29 52 32 42 14 -28 -53
22 -65 106 -26 48 22 53 23 70 8 17 -16 17 -16 5 0 -7 9 -9 23 -5 29 5 9 2 10
-10 6 -12 -5 -19 0 -26 18 -5 14 -15 25 -21 25 -8 0 -8 -4 1 -15 9 -11 9 -15
1 -15 -6 0 -16 12 -21 26 -14 35 -13 39 8 23 15 -13 16 -12 3 4 -19 24 -31 21
-31 -7 0 -16 11 -34 31 -49 l31 -24 -51 -21 c-77 -34 -100 -28 -76 19 19 36
20 56 2 41 -7 -6 -22 -9 -33 -6 -13 3 -47 -8 -88 -30 -89 -47 -104 -47 -102 2
1 32 -2 37 -19 34 -11 -2 -37 -14 -57 -28 -55 -36 -58 -29 -8 21 24 25 40 45
34 45 -6 0 -23 -14 -40 -31 -54 -58 -190 -109 -209 -79 -10 16 13 38 43 42 15
2 26 8 25 13 -4 21 -32 14 -84 -21 -76 -52 -159 -88 -172 -75 -20 20 19 78 80
119 95 65 252 201 295 256 22 28 47 50 54 48 8 -2 27 5 44 14 25 15 34 16 70
5 38 -11 47 -31 14 -31 -8 0 -14 -4 -14 -10 0 -14 43 -12 64 3 17 12 16 14 -8
25 -17 7 -29 23 -32 42 -7 35 -34 63 -34 36 0 -10 5 -26 10 -37 18 -32 -9 -23
-44 16 -31 34 -56 45 -56 26z m23 -8 c-7 -2 -13 -9 -13 -14 0 -6 5 -7 10 -4
17 10 11 -12 -7 -26 -11 -10 -14 -10 -9 -1 4 6 3 12 -2 12 -18 0 -21 -29 -4
-33 16 -4 16 -5 0 -6 -9 0 -20 3 -23 9 -7 12 34 70 49 69 6 0 5 -3 -1 -6z
m-621 -160 c-44 -48 -93 -99 -108 -113 -26 -24 -26 -23 4 17 49 63 174 194
180 189 2 -3 -31 -45 -76 -93z m539 58 c-42 -59 -314 -291 -327 -279 -7 8 137
168 202 224 102 89 170 118 125 55z m-961 -305 c0 -5 -105 -66 -114 -66 -19 0
-1 22 37 44 37 23 77 34 77 22z m142 -27 c-19 -17 -37 -27 -40 -24 -8 8 47 55
63 55 6 0 -5 -14 -23 -31z m257 15 c-17 -21 -89 -57 -89 -45 0 13 70 61 89 61
11 0 11 -3 0 -16z m851 9 c0 -10 -57 -49 -85 -59 -18 -7 -19 -6 -5 11 16 19
69 55 83 55 4 0 7 -3 7 -7z m-1485 -274 c-65 -67 -137 -121 -148 -110 -5 5 -6
14 -3 20 7 11 176 131 185 131 3 0 -13 -19 -34 -41z m-165 -119 c0 -5 -5 -10
-11 -10 -5 0 -7 5 -4 10 3 6 8 10 11 10 2 0 4 -4 4 -10z"/>
<path d="M3597 1549 c-78 -51 -299 -280 -285 -294 2 -3 28 24 57 60 88 108
271 268 288 251 13 -13 -26 -62 -105 -135 -97 -88 -233 -192 -243 -186 -4 3
-13 -2 -20 -11 -17 -21 -124 -74 -149 -74 -27 0 -25 12 6 49 14 17 21 31 16
31 -15 0 -52 -50 -52 -70 0 -29 23 -30 86 -4 32 13 60 24 61 24 1 0 -1 -16 -4
-35 -8 -53 15 -54 107 -9 70 35 79 38 83 22 6 -23 48 -24 107 -3 54 19 54 19
36 -7 -36 -51 -3 -65 55 -23 28 21 35 23 37 10 6 -26 38 -17 71 20 17 20 31
40 31 45 0 6 10 6 26 0 14 -6 42 -10 63 -10 36 0 38 -2 33 -26 -5 -27 -5 -27
51 -22 38 3 81 17 140 47 50 25 95 41 109 39 19 -3 12 -10 -41 -37 -34 -18
-61 -35 -58 -38 9 -9 127 59 127 73 0 27 -65 15 -144 -26 -122 -65 -221 -66
-153 -2 28 26 39 28 30 5 -4 -11 -3 -14 5 -9 17 10 15 36 -3 36 -9 0 -27 -7
-41 -16 -30 -20 -112 -14 -129 10 -16 22 -25 20 -25 -4 0 -22 -65 -99 -74 -89
-4 3 -2 18 3 33 10 25 -1 37 -14 15 -9 -14 -86 -69 -97 -69 -14 0 11 42 50 83
20 20 31 37 25 37 -7 0 -15 -5 -19 -11 -11 -18 -127 -69 -156 -69 -31 0 -45
17 -29 33 12 12 16 13 46 16 20 1 19 31 -1 31 -8 0 -35 -14 -60 -31 -75 -52
-165 -92 -177 -80 -24 24 8 65 114 146 193 146 312 265 294 294 -10 18 -29 13
-78 -20z"/>
<path d="M4781 1493 c-43 -43 -114 -123 -159 -177 -60 -73 -101 -111 -150
-142 -37 -24 -68 -41 -69 -40 -2 1 10 25 25 54 14 28 23 54 19 58 -4 4 -26 -7
-50 -24 -53 -41 -97 -65 -104 -58 -3 3 9 24 27 48 l32 43 -36 -37 c-36 -37
-45 -61 -27 -73 5 -3 39 15 75 40 36 25 66 40 66 35 0 -5 -14 -32 -31 -59 -25
-42 -49 -61 -150 -123 -66 -40 -144 -92 -174 -115 -83 -65 -106 -113 -54 -113
10 0 19 -6 19 -14 0 -17 38 -66 51 -66 6 0 1 12 -10 26 -27 34 -27 59 1 78 26
19 68 21 68 4 0 -6 3 -8 7 -4 5 4 0 13 -9 20 -15 11 -11 17 39 57 31 24 87 78
126 119 38 41 84 83 101 93 17 11 46 28 64 39 l33 20 -41 -62 c-22 -35 -37
-66 -34 -69 6 -6 16 5 85 89 l37 44 25 -29 c24 -28 25 -29 68 -16 48 14 162
71 155 78 -2 2 -33 -10 -67 -28 -83 -41 -117 -51 -140 -38 -27 14 -24 23 15
37 42 16 63 39 49 53 -18 18 -53 0 -112 -55 -43 -40 -50 -44 -32 -18 12 17 38
44 57 58 18 14 31 30 28 35 -12 19 246 299 276 299 31 0 -102 -154 -220 -253
-30 -26 -50 -47 -43 -47 18 0 218 196 252 247 37 55 38 63 10 63 -13 0 -51
-29 -98 -77z m-136 -273 c-8 -13 -56 -33 -63 -26 -2 3 11 14 29 25 34 21 46
21 34 1z m-396 -234 c-84 -80 -201 -166 -226 -166 -24 0 -13 28 25 62 55 49
264 189 282 188 3 -1 -34 -38 -81 -84z"/>
<path d="M2260 1526 c0 -3 14 -13 32 -22 29 -15 30 -18 14 -29 -23 -17 -3 -29
24 -15 15 8 25 8 34 1 10 -8 11 -4 8 19 -5 33 -22 52 -22 24 0 -16 -1 -16 -18
-1 -10 10 -21 14 -24 11 -4 -3 -16 -1 -27 6 -12 6 -21 8 -21 6z"/>
<path d="M2435 1410 c10 -11 20 -20 23 -20 3 0 -3 9 -13 20 -10 11 -20 20 -23
20 -3 0 3 -9 13 -20z"/>
<path d="M405 1401 c-37 -22 -72 -61 -57 -61 7 0 12 4 12 8 0 13 55 50 84 58
24 6 26 4 26 -26 0 -25 -14 -46 -73 -108 -82 -86 -107 -122 -83 -122 17 0 110
100 132 141 15 30 88 74 104 64 13 -8 3 -31 -42 -97 -64 -95 -56 -96 33 -3
167 175 241 198 119 38 -32 -43 -71 -93 -86 -111 -15 -18 -25 -34 -23 -36 2
-3 29 26 60 62 172 205 152 278 -30 108 l-43 -41 17 33 c28 57 7 74 -58 47
-15 -6 -18 -4 -17 11 7 59 -18 71 -75 35z m-30 -186 c-21 -25 -40 -43 -43 -41
-2 3 13 26 33 51 21 25 40 43 43 41 2 -3 -13 -26 -33 -51z"/>
<path d="M2611 1415 c0 -5 8 -26 19 -45 11 -19 19 -30 19 -25 0 6 -8 26 -19
45 -11 19 -19 31 -19 25z"/>
<path d="M2813 1391 c-43 -31 -61 -51 -45 -51 5 0 19 11 31 24 31 32 79 52 93
38 17 -17 -8 -74 -47 -105 -20 -16 -53 -50 -74 -77 -21 -27 -42 -46 -45 -42
-4 4 -3 -5 3 -20 7 -18 -14 -1 -67 54 -42 44 -104 103 -137 131 -33 29 -3 -4
66 -73 69 -69 141 -143 158 -165 l32 -40 -19 40 -20 40 25 18 c13 11 49 52 79
93 49 66 94 104 124 104 22 0 8 -36 -41 -108 -27 -41 -48 -76 -46 -78 2 -3 34
29 70 69 66 74 164 157 185 157 25 0 -26 -82 -116 -188 -30 -35 -51 -66 -48
-69 3 -4 8 -4 10 -2 42 48 155 203 165 227 28 68 -25 53 -116 -31 -36 -34 -63
-53 -59 -42 27 65 11 89 -42 62 l-29 -14 1 36 c1 31 -2 36 -24 39 -16 2 -41
-8 -67 -27z m9 -148 c-11 -16 -33 -39 -48 -53 -34 -30 -17 -3 30 48 37 39 44
41 18 5z"/>
<path d="M2671 1285 c0 -5 8 -26 19 -45 11 -19 19 -30 19 -25 0 6 -8 26 -19
45 -11 19 -19 31 -19 25z"/>
<path d="M2508 1184 c-3 -12 9 -33 31 -58 24 -25 32 -40 23 -43 -19 -7 -4 -23
23 -23 16 0 44 -22 90 -72 55 -60 58 -62 17 -13 -28 33 -76 85 -106 115 -31
30 -56 61 -56 70 0 8 -4 21 -9 29 -7 11 -10 10 -13 -5z"/>
<path d="M4080 1150 c0 -5 15 -10 33 -10 17 0 47 -4 65 -9 18 -6 30 -6 27 -1
-3 5 -22 12 -43 15 -20 3 -47 8 -59 11 -13 2 -23 0 -23 -6z"/>
<path d="M2454 1055 c4 -34 19 -46 92 -78 l62 -25 -16 31 c-13 24 -17 28 -20
15 -4 -21 -7 -21 -33 -8 -10 6 -19 17 -19 24 0 7 -10 22 -22 33 -39 34 -47 36
-44 8z m47 -38 c-5 -5 -15 -6 -21 -2 -9 6 -9 10 1 16 10 6 11 9 2 9 -7 0 -13
5 -13 12 0 6 9 3 20 -7 13 -12 17 -22 11 -28z"/>
<path d="M2840 940 c6 -11 13 -20 16 -20 2 0 0 9 -6 20 -6 11 -13 20 -16 20
-2 0 0 -9 6 -20z"/>
<path d="M2649 931 c28 -15 31 -19 16 -25 -29 -11 -9 -19 26 -11 l33 7 -44 24
c-25 13 -49 23 -55 23 -5 0 5 -8 24 -18z"/>
<path d="M2736 902 c-3 -5 10 -16 29 -25 19 -9 35 -15 35 -14 0 10 -60 45 -64
39z"/>
<path d="M732 848 c-19 -19 -14 -36 14 -54 19 -13 24 -24 21 -41 -3 -19 -2
-21 9 -12 21 17 17 33 -17 63 -23 21 -28 31 -20 39 9 9 17 8 32 -2 18 -10 20
-10 17 1 -6 18 -40 22 -56 6z"/>
<path d="M870 838 c24 -26 34 -60 27 -88 -4 -14 0 -20 11 -20 13 0 17 9 17 39
0 22 -3 37 -7 35 -10 -6 -30 34 -23 46 3 6 -5 10 -20 10 l-26 0 21 -22z"/>
<path d="M934 840 c0 -11 1 -20 1 -20 0 0 8 9 18 20 16 19 16 20 -1 20 -11 0
-18 -8 -18 -20z"/>
<path d="M1052 844 c-28 -19 -30 -74 -4 -97 25 -22 39 -22 20 1 -30 33 -31 60
-4 87 28 28 22 33 -12 9z"/>
<path d="M1110 856 c0 -2 7 -6 15 -10 8 -3 15 -1 15 4 0 6 -7 10 -15 10 -8 0
-15 -2 -15 -4z"/>
<path d="M1230 845 c8 -10 11 -33 8 -65 -4 -34 -1 -50 7 -50 7 0 10 11 7 30
-4 29 -3 30 38 30 41 0 42 -1 38 -30 -3 -17 0 -30 6 -30 7 0 10 21 7 56 -2 40
1 59 10 65 10 6 4 8 -16 8 -16 0 -24 -3 -17 -6 6 -2 12 -16 12 -29 0 -21 -4
-24 -40 -24 -36 0 -40 3 -40 24 0 13 6 27 13 29 6 3 -1 6 -17 6 -24 1 -27 -1
-16 -14z"/>
<path d="M1450 840 c-11 -11 -20 -30 -20 -43 0 -30 27 -67 48 -67 13 0 12 3
-6 16 -25 17 -31 71 -10 92 15 15 51 15 66 0 19 -19 15 -85 -5 -97 -10 -6 -13
-11 -6 -11 17 0 43 40 43 67 0 30 -34 63 -65 63 -14 0 -34 -9 -45 -20z"/>
<path d="M1630 851 c0 -4 12 -6 26 -3 26 5 26 5 22 -57 -2 -49 0 -61 12 -61
12 0 14 12 12 61 -4 62 -4 62 22 57 14 -3 26 -1 26 3 0 5 -27 9 -60 9 -33 0
-60 -4 -60 -9z"/>
<path d="M1828 848 c7 -7 12 -30 12 -53 0 -23 -5 -46 -12 -53 -9 -9 -2 -12 35
-12 26 0 47 4 47 8 0 5 -13 7 -30 4 -27 -4 -30 -1 -30 22 0 19 5 26 20 26 11
0 20 4 20 9 0 5 -9 7 -20 4 -16 -4 -20 0 -20 20 0 20 6 27 28 30 18 3 12 5
-17 6 -35 1 -42 -2 -33 -11z"/>
<path d="M1988 848 c7 -7 12 -30 12 -53 0 -23 -5 -46 -12 -53 -9 -9 -8 -12 8
-12 17 0 19 6 16 60 -2 49 1 60 13 60 21 0 30 -27 15 -45 -9 -11 -8 -20 10
-45 12 -16 29 -30 38 -30 16 1 16 1 0 11 -29 16 -40 46 -28 70 16 29 -4 49
-48 49 -28 0 -33 -3 -24 -12z"/>
<path d="M2222 843 c-14 -26 -16 -44 -2 -23 7 12 10 11 15 -5 4 -11 11 -30 16
-43 5 -13 7 -28 4 -33 -4 -5 4 -9 16 -9 17 0 19 3 10 14 -6 7 -20 38 -30 67
-16 50 -19 52 -29 32z"/>
<path d="M2369 841 c15 -26 14 -84 -1 -99 -9 -9 -8 -12 8 -12 17 0 19 6 16 60
-3 54 -2 60 16 60 34 0 39 -53 6 -63 -10 -3 -9 -4 2 -3 9 0 22 9 28 19 17 27
-4 51 -48 55 -35 3 -37 2 -27 -17z"/>
<path d="M2528 848 c16 -16 16 -105 0 -111 -7 -3 -4 -6 7 -6 18 -1 20 4 16 55
-2 40 1 59 10 65 10 6 5 9 -15 9 -23 0 -27 -3 -18 -12z"/>
<path d="M2676 810 c-10 -28 -25 -57 -33 -65 -13 -13 -11 -15 14 -15 18 0 24
3 15 8 -10 7 -9 18 7 53 12 28 21 39 24 29 23 -66 25 -79 14 -84 -7 -2 2 -5
18 -5 17 0 25 3 19 7 -6 4 -20 33 -30 65 -10 31 -20 57 -24 57 -3 0 -14 -23
-24 -50z"/>
<path d="M2900 840 c6 -11 13 -20 16 -20 2 0 0 9 -6 20 -6 11 -13 20 -16 20
-2 0 0 -9 6 -20z"/>
<path d="M2927 841 c3 -10 0 -22 -7 -26 -8 -5 -8 -10 1 -21 6 -8 9 -25 7 -39
-4 -20 -1 -25 14 -25 11 0 16 5 13 10 -4 6 -2 17 5 25 7 9 8 15 0 20 -14 9
-13 62 3 68 6 3 0 6 -15 6 -21 1 -25 -3 -21 -18z"/>
<path d="M3154 795 c24 -50 32 -61 39 -49 6 10 5 19 -1 23 -15 9 -43 77 -35
85 4 3 -3 6 -13 6 -19 0 -18 -4 10 -65z"/>
<path d="M3184 847 c10 -7 19 -25 19 -39 1 -14 5 -24 8 -22 4 2 10 -7 13 -21
4 -14 11 -25 16 -25 13 0 13 6 -6 41 -8 17 -13 37 -10 45 3 9 1 12 -4 9 -6 -3
-10 1 -10 9 0 10 -9 16 -22 16 -20 0 -21 -1 -4 -13z"/>
<path d="M3228 853 c7 -3 16 -2 19 1 4 3 -2 6 -13 5 -11 0 -14 -3 -6 -6z"/>
<path d="M3267 844 c3 -9 9 -12 12 -7 3 4 10 11 15 16 5 4 0 7 -12 7 -15 0
-20 -4 -15 -16z"/>
<path d="M3372 848 c-19 -19 -15 -31 20 -59 29 -24 31 -29 18 -45 -13 -15 -13
-17 0 -12 27 8 24 53 -4 72 -15 9 -26 23 -26 31 0 17 36 21 43 5 3 -6 4 -5 3
2 -3 18 -38 22 -54 6z"/>
<path d="M3509 851 c9 -6 12 -25 10 -65 -3 -33 0 -56 6 -56 6 0 9 25 7 61 -4
59 -3 61 19 57 30 -4 37 -37 13 -55 -18 -13 -8 -19 12 -5 40 27 13 72 -44 72
-24 0 -32 -3 -23 -9z"/>
<path d="M3669 851 c9 -6 12 -25 10 -65 -4 -49 -2 -56 15 -56 14 0 16 3 8 13
-17 21 -10 101 9 105 22 4 32 -24 14 -41 -12 -12 -10 -19 8 -45 12 -18 28 -32
36 -32 10 0 4 11 -14 30 -22 23 -26 33 -17 42 17 17 15 45 -4 52 -25 10 -81 7
-65 -3z"/>
<path d="M3906 844 c-8 -22 -8 -26 3 -19 12 7 35 -61 27 -80 -4 -11 2 -15 20
-15 22 0 23 2 11 14 -8 8 -20 35 -27 60 -14 52 -25 64 -34 40z"/>
<path d="M4245 795 c0 -51 3 -65 15 -65 12 0 15 14 15 65 0 51 -3 65 -15 65
-12 0 -15 -14 -15 -65z"/>
<path d="M4365 795 l0 -65 37 0 c20 0 39 4 42 8 3 5 -8 6 -25 4 -26 -4 -29 -2
-29 23 0 22 4 26 20 22 12 -3 20 0 20 8 0 8 -8 11 -20 8 -16 -4 -20 0 -20 20
0 20 6 27 28 30 20 3 17 4 -13 6 l-40 1 0 -65z"/>
<path d="M3886 794 c-4 -9 -4 -19 -1 -22 2 -3 7 3 11 12 4 9 4 19 1 22 -2 3
-7 -3 -11 -12z"/>
<path d="M2182 750 c-11 -17 -10 -20 7 -20 14 0 18 5 14 20 -3 11 -6 20 -7 20
-1 0 -7 -9 -14 -20z"/>
<path d="M3000 756 c0 -3 14 -12 30 -21 17 -9 30 -13 30 -11 0 3 -13 12 -30
21 -16 9 -30 13 -30 11z"/>
<path d="M3360 751 c0 -6 4 -13 10 -16 6 -3 7 1 4 9 -7 18 -14 21 -14 7z"/>
<path d="M3862 745 c-11 -13 -10 -15 7 -15 14 0 19 5 15 15 -7 18 -6 18 -22 0z"/>
<path d="M720 740 c0 -5 5 -10 11 -10 5 0 7 5 4 10 -3 6 -8 10 -11 10 -2 0 -4
-4 -4 -10z"/>
<path d="M1125 740 c-3 -5 -1 -10 4 -10 6 0 11 5 11 10 0 6 -2 10 -4 10 -3 0
-8 -4 -11 -10z"/>
<path d="M4140 740 c-9 -6 -10 -10 -3 -10 6 0 15 5 18 10 8 12 4 12 -15 0z"/>
<path d="M2970 736 c0 -2 8 -10 18 -17 15 -13 16 -12 3 4 -13 16 -21 21 -21
13z"/>
<path d="M3070 716 c0 -3 9 -10 20 -16 11 -6 20 -8 20 -6 0 3 -9 10 -20 16
-11 6 -20 8 -20 6z"/>
<path d="M3037 655 c23 -27 72 -79 110 -115 55 -53 51 -48 -22 30 -123 131
-135 142 -88 85z"/>
<path d="M3120 686 c0 -3 9 -10 20 -16 11 -6 20 -8 20 -6 0 3 -9 10 -20 16
-11 6 -20 8 -20 6z"/>
<path d="M3170 656 c0 -3 14 -12 30 -21 17 -9 30 -13 30 -11 0 3 -13 12 -30
21 -16 9 -30 13 -30 11z"/>
<path d="M3240 616 c0 -3 14 -12 30 -21 17 -9 30 -13 30 -11 0 3 -13 12 -30
21 -16 9 -30 13 -30 11z"/>
<path d="M3310 576 c0 -3 14 -12 30 -21 17 -9 30 -13 30 -11 0 3 -13 12 -30
21 -16 9 -30 13 -30 11z"/>
<path d="M3380 536 c0 -3 14 -12 30 -21 17 -9 30 -13 30 -11 0 3 -13 12 -30
21 -16 9 -30 13 -30 11z"/>
<path d="M3450 496 c0 -3 9 -10 20 -16 11 -6 20 -8 20 -6 0 3 -9 10 -20 16
-11 6 -20 8 -20 6z"/>
<path d="M3240 455 c13 -14 26 -25 28 -25 3 0 -5 11 -18 25 -13 14 -26 25 -28
25 -3 0 5 -11 18 -25z"/>
<path d="M3520 456 c0 -3 9 -10 20 -16 11 -6 20 -8 20 -6 0 3 -9 10 -20 16
-11 6 -20 8 -20 6z"/>
<path d="M3284 422 c8 -13 66 -56 66 -49 0 3 -17 17 -37 33 -20 15 -33 23 -29
16z"/>
<path d="M3570 426 c0 -3 9 -10 20 -16 11 -6 20 -8 20 -6 0 3 -9 10 -20 16
-11 6 -20 8 -20 6z"/>
<path d="M3650 377 c0 -2 32 -25 70 -51 39 -25 70 -44 70 -41 0 2 -26 22 -57
43 -71 47 -83 54 -83 49z"/>
<path d="M3360 366 c0 -3 33 -27 73 -54 82 -55 107 -70 92 -55 -16 16 -165
114 -165 109z"/>
<path d="M3710 160 c8 -5 20 -10 25 -10 6 0 3 5 -5 10 -8 5 -19 10 -25 10 -5
0 -3 -5 5 -10z"/>
<path d="M3780 130 c8 -5 20 -10 25 -10 6 0 3 5 -5 10 -8 5 -19 10 -25 10 -5
0 -3 -5 5 -10z"/>
<path d="M3910 86 c0 -2 9 -6 20 -9 11 -3 18 -1 14 4 -5 9 -34 13 -34 5z"/>
</g>
</svg>
